<?xml version="1.0" encoding="utf-8"?>
<!-- Generator: Adobe Illustrator 25.0.0, SVG Export Plug-In . SVG Version: 6.00 Build 0)  -->
<svg version="1.1" id="Layer_1" xmlns="http://www.w3.org/2000/svg" xmlns:xlink="http://www.w3.org/1999/xlink" x="0px" y="0px"
	 viewBox="0 0 511 511" style="enable-background:new 0 0 511 511;" xml:space="preserve">
<g>
	<path d="M510.5,150.2c-1.2-27.2-5.6-45.8-11.9-62c-6.5-17.2-16.5-32.5-29.5-45.3c-12.8-13-28.2-23.1-45.2-29.4
		c-16.3-6.3-34.8-10.7-62-11.9C334.5,0.3,325.8,0,256.5,0s-78.1,0.3-105.3,1.5c-27.2,1.2-45.8,5.6-62,11.9
		C72,19.9,56.6,29.8,43.8,42.9c-13,12.8-23.1,28.3-29.5,45.2c-6.3,16.3-10.7,34.8-11.9,62c-1.3,27.4-1.6,36-1.6,105.4
		s0.3,78.1,1.5,105.3c1.2,27.2,5.6,45.8,11.9,62c6.5,17.2,16.6,32.5,29.5,45.3c12.8,13,28.2,23.1,45.2,29.4
		c16.3,6.3,34.8,10.7,62,11.9c27.2,1.2,35.9,1.5,105.3,1.5s78.1-0.3,105.3-1.5c27.2-1.2,45.8-5.6,62-11.9
		c34.3-13.3,61.5-40.4,74.8-74.8c6.3-16.3,10.7-34.8,11.9-62c1.2-27.2,1.5-35.9,1.5-105.3S511.7,177.5,510.5,150.2z M256.5,386.8
		c-72.5,0-131.3-58.8-131.3-131.3S184,124.3,256.5,124.3s131.3,58.8,131.3,131.3S328.9,386.8,256.5,386.8z M392.9,149.7
		c-16.9,0-30.6-13.7-30.6-30.6c0-16.9,13.7-30.6,30.6-30.6c16.9,0,30.7,13.7,30.7,30.6C423.6,136,409.8,149.7,392.9,149.7z"/>
	<ellipse transform="matrix(0.7071 -0.7071 0.7071 0.7071 -105.5887 256.1864)" cx="256.5" cy="255.6" rx="85.2" ry="85.2"/>
</g>
</svg>
