<?xml version="1.0" encoding="utf-8"?>
<!-- Generator: Adobe Illustrator 25.0.0, SVG Export Plug-In . SVG Version: 6.00 Build 0)  -->
<svg version="1.1" id="Layer_1" xmlns="http://www.w3.org/2000/svg" xmlns:xlink="http://www.w3.org/1999/xlink" x="0px" y="0px"
	 viewBox="0 0 100 100" style="enable-background:new 0 0 100 100;" xml:space="preserve">
<path d="M98.6,61.9c0.8-3.6,1.3-7.4,1.3-11.3c0-4.4-0.6-8.6-1.6-12.7l-7.2-1.7c-0.7-1.9-1.5-3.8-2.4-5.6l3.9-6.2
	c-4.3-7-10.2-12.8-17.3-16.9L69,11.5c-1.7-0.8-3.4-1.5-5.2-2.1l-1.7-7.1c-3.9-1-8-1.5-12.1-1.5s-8.3,0.5-12.1,1.5l-1.7,7.1
	c-1.8,0.6-3.5,1.3-5.2,2.1l-6.2-3.9c-7.1,4.1-13,10-17.3,16.9l3.9,6.2c-0.9,1.8-1.7,3.7-2.4,5.6L1.8,38C0.7,42,0.1,46.3,0.1,50.7
	c0,3.9,0.4,7.6,1.3,11.3l7,1.6c0.7,2.2,1.5,4.3,2.5,6.3l-3.9,6.2c1.4,2.4,3.1,4.8,4.9,6.9l5.7,5.7c1.9,1.6,3.9,3.1,6,4.4l6.1-3.8
	c2.1,1.1,4.4,2.1,6.7,2.8l1.6,7.1c1.9,0.5,3.8,0.8,5.7,1h12.2c2-0.2,3.9-0.6,5.7-1l1.6-7.1c2.3-0.8,4.6-1.7,6.7-2.8l6.1,3.8
	c2.1-1.3,4.1-2.8,5.9-4.3c0,0,0,0,0.1,0L88,83c0,0,0,0,0-0.1c1.8-2.1,3.4-4.4,4.9-6.8L89,69.9c1-2,1.8-4.1,2.5-6.3L98.6,61.9z
	 M50,81.4c-17,0-30.8-13.8-30.8-30.8S33,19.9,50,19.9s30.8,13.8,30.8,30.8S67,81.4,50,81.4z"/>
</svg>
