<?xml version="1.0" encoding="utf-8"?>
<!-- Generator: Adobe Illustrator 25.0.0, SVG Export Plug-In . SVG Version: 6.00 Build 0)  -->
<svg version="1.1" id="Layer_1" xmlns="http://www.w3.org/2000/svg" xmlns:xlink="http://www.w3.org/1999/xlink" x="0px" y="0px"
	 viewBox="0 0 434.1 434.1" style="enable-background:new 0 0 434.1 434.1;" xml:space="preserve">
<path d="M408.1,0l-14.5,0c0,0,0,0,0,0H45.3h-4.6H26l2.7,32.5l0,0l24.7,315.9l0,0.7l2.5,35.1l43.1,13.2l114,36.1
	c2.6,0.8,5.4,0.8,8.1,0l134.6-42.7l14.3-4.6l8-2.5L380,358l0-0.3l26.2-335.5L408.1,0z M334.5,126.2H150.9l5.5,51.1h174.1L319.2,323
	l-102.1,32.4L115,323l-5.9-76.1h53.6v37.3l55.9,15l55.5-15l4.3-59.5H107.3L95.9,79.4h242.3L334.5,126.2z"/>
</svg>
