<?xml version="1.0" encoding="utf-8"?>
<!-- Generator: Adobe Illustrator 25.0.0, SVG Export Plug-In . SVG Version: 6.00 Build 0)  -->
<svg version="1.1" id="Layer_1" xmlns="http://www.w3.org/2000/svg" xmlns:xlink="http://www.w3.org/1999/xlink" x="0px" y="0px"
	 viewBox="0 0 100 100" style="enable-background:new 0 0 100 100;" xml:space="preserve">
<path d="M0,0v100h100V0H0z M44.8,68.6c0,3.7-0.4,6.5-1.3,8.5c-0.8,2-2.2,3.5-4,4.6c-1.8,1.1-4,1.6-6.4,1.6c-3.6,0-6.4-1.1-8.4-3.3
	c-2-2.3-2.9-5.6-2.9-10l5-0.7c0.1,3.3,0.7,5.6,1.8,6.9c1.1,1.2,2.5,1.8,4.4,1.8c1.4,0,2.6-0.3,3.6-1s1.7-1.6,2.1-2.7
	c0.4-1.1,0.6-3,0.6-5.5v-30h5.5V68.6z M83,76.7c-1.3,2.1-3.1,3.7-5.5,4.8c-2.4,1.1-5,1.7-8,1.7c-3.8,0-6.9-0.6-9.4-1.7
	c-2.5-1.2-4.5-2.9-6-5.2c-1.5-2.4-2.2-5-2.3-7.9l5.2-0.5c0.2,2.2,0.8,4,1.7,5.4c0.9,1.4,2.3,2.5,4.2,3.4c1.9,0.9,4,1.3,6.4,1.3
	c2.1,0,3.9-0.3,5.6-1c1.6-0.7,2.8-1.6,3.6-2.7c0.8-1.1,1.2-2.4,1.2-3.7c0-1.4-0.4-2.6-1.1-3.6c-0.8-1-2-1.9-3.7-2.6
	c-1.1-0.5-3.6-1.2-7.4-2.1c-3.8-1-6.5-1.9-8-2.7c-2-1.1-3.5-2.4-4.4-4.1c-1-1.6-1.5-3.4-1.5-5.4c0-2.2,0.6-4.3,1.8-6.2
	c1.2-1.9,2.9-3.4,5.2-4.4c2.3-1,4.8-1.5,7.6-1.5c3.1,0,5.8,0.5,8.1,1.6c2.4,1,4.2,2.6,5.4,4.6c1.3,2,1.9,4.3,2,6.9l-5.3,0.4
	c-0.3-2.8-1.2-4.8-2.9-6.3c-1.6-1.4-4-2.1-7.2-2.1c-3.3,0-5.7,0.6-7.3,1.9c-1.5,1.3-2.3,2.8-2.3,4.6c0,1.6,0.5,2.9,1.6,3.9
	c1.1,1,3.8,2.1,8.3,3.1c4.5,1.1,7.5,2,9.2,2.8c2.4,1.2,4.2,2.7,5.4,4.5s1.7,3.9,1.7,6.2C84.9,72.4,84.3,74.6,83,76.7z"/>
</svg>
