<?xml version="1.0" encoding="utf-8"?>
<!-- Generator: Adobe Illustrator 25.0.0, SVG Export Plug-In . SVG Version: 6.00 Build 0)  -->
<svg version="1.1" id="Layer_1" xmlns="http://www.w3.org/2000/svg" xmlns:xlink="http://www.w3.org/1999/xlink" x="0px" y="0px"
	 viewBox="0 0 100 100" style="enable-background:new 0 0 100 100;" xml:space="preserve">
<g>
	<path d="M77.03,47.04c-1.35-0.4-3.02-0.58-5.01-0.56c-0.28,0.03-0.55,0.04-0.81,0.04c-0.26,0-0.53,0-0.8,0l-1.97,11.16
		c0.17,0.03,0.33,0.04,0.5,0.04c0.16,0,0.33,0,0.5,0c2.38,0.03,4.37-0.22,5.95-0.72c1.58-0.51,2.61-2.32,3.08-5.43
		C78.86,48.95,78.38,47.44,77.03,47.04z"/>
	<path d="M31.77,47.04c-1.35-0.4-3.02-0.58-5.01-0.56c-0.28,0.03-0.55,0.04-0.81,0.04c-0.26,0-0.53,0-0.8,0l-1.97,11.16
		c0.17,0.03,0.33,0.04,0.5,0.04c0.16,0,0.33,0,0.5,0c2.39,0.03,4.37-0.22,5.95-0.72c1.58-0.51,2.61-2.32,3.08-5.43
		C33.6,48.95,33.12,47.44,31.77,47.04z"/>
	<path d="M50,23.54c-27.61,0-50,12.76-50,28.5c0,15.74,22.39,28.5,50,28.5s50-12.76,50-28.5C100,36.3,77.61,23.54,50,23.54z
		 M38.61,51.6c-0.16,1.32-0.51,2.61-1.06,3.88c-0.55,1.27-1.32,2.41-2.32,3.43c-1.22,1.29-2.54,2.11-3.94,2.46
		c-1.4,0.35-2.86,0.52-4.38,0.52h-4.48l-1.25,7.09H16l4.72-26.75h10c2.93,0.03,5.08,0.87,6.44,2.54C38.51,46.43,39,48.71,38.61,51.6
		z M60.18,49.47L57.99,61.9h-5.22l2.09-11.87c0.22-1.24,0.13-2.13-0.28-2.65c-0.4-0.52-1.27-0.78-2.59-0.78l-4.13-0.04l-2.7,15.34
		h-5.15l4.72-26.79h5.15l-1.26,7.13h4.63c2.53,0.05,4.43,0.57,5.71,1.57C60.24,44.79,60.65,46.68,60.18,49.47z M83.87,51.6
		c-0.16,1.32-0.51,2.61-1.06,3.88c-0.55,1.27-1.32,2.41-2.32,3.43c-1.22,1.29-2.54,2.11-3.94,2.46c-1.4,0.35-2.86,0.52-4.38,0.52
		h-4.48l-1.25,7.09h-5.19l4.72-26.75h10c2.93,0.03,5.08,0.87,6.44,2.54C83.77,46.43,84.26,48.71,83.87,51.6z"/>
</g>
</svg>
