<?xml version="1.0" encoding="utf-8"?>
<!-- Generator: Adobe Illustrator 25.0.0, SVG Export Plug-In . SVG Version: 6.00 Build 0)  -->
<svg version="1.1" id="Layer_1" xmlns="http://www.w3.org/2000/svg" xmlns:xlink="http://www.w3.org/1999/xlink" x="0px" y="0px"
	 viewBox="0 0 100 100" style="enable-background:new 0 0 100 100;" xml:space="preserve">
<g>
	<g>
		<path d="M86.66,14.11c0,3.38-4.23,6.97-11.31,9.62C68.38,26.3,59.38,27.72,50,27.72s-18.38-1.42-25.32-3.99
			c-7.1-2.65-11.34-6.24-11.34-9.62C13.34,7.65,28.4,0.47,50,0.47C71.6,0.47,86.66,7.65,86.66,14.11z"/>
	</g>
	<g>
		<path d="M86.18,23.84v14.54c0,3.36-4.2,6.9-11.21,9.49c-6.8,2.54-15.68,3.94-24.96,3.94c-9.31,0-18.17-1.4-24.96-3.94
			c-7.03-2.59-11.21-6.14-11.21-9.49V23.84c2.38,1.9,5.5,3.62,9.34,5.05c7.43,2.75,16.98,4.26,26.84,4.26
			c9.86,0,19.38-1.51,26.84-4.26C80.68,27.43,83.8,25.74,86.18,23.84z"/>
	</g>
	<g>
		<path d="M86.18,47.37v14.74c0,3.3-3.99,6.83-10.71,9.46h-0.03l-0.42,0.16C68.14,74.3,59.26,75.72,50,75.72s-18.14-1.42-25.02-3.99
			l-0.29-0.11c-6.82-2.63-10.87-6.19-10.87-9.51V47.37c2.38,1.93,5.53,3.64,9.36,5.09c7.38,2.79,16.9,4.31,26.82,4.31
			s19.44-1.53,26.79-4.31C80.65,51.01,83.8,49.3,86.18,47.37z"/>
	</g>
	<g>
		<path d="M86.18,71.67v14.71C86.18,92.82,71.31,100,50,100c-21.32,0-36.18-7.18-36.18-13.61V71.67c2.35,1.9,5.47,3.62,9.31,5.09
			l0.45,0.16h0.03c7.38,2.68,16.71,4.15,26.39,4.15c9.65,0,19.01-1.47,26.39-4.15h0.03l0.45-0.16
			C80.68,75.29,83.8,73.58,86.18,71.67z"/>
	</g>
</g>
</svg>
