<svg xmlns="http://www.w3.org/2000/svg" viewBox="0 0 96 93.6"><defs><style>.cls-1{fill:#ff4a1d;}.cls-2{fill:#260600;}.cls-3{fill:#fff;}</style></defs><title>Animate_1</title><g id="Layer_2" data-name="Layer 2"><g id="Layer_1-2" data-name="Layer 1"><rect class="cls-1" width="96" height="93.6" rx="17.6" ry="17.6"/><rect class="cls-2" x="4" y="4" width="88" height="85.6" rx="14.4" ry="14.4"/><path class="cls-3" d="M26.72,53.76l-3.2,12c0,.32-.16.32-.64.32H17c-.32,0-.48-.16-.32-.64L28,25.6a11.06,11.06,0,0,0,.32-3.2c0-.32.16-.32.32-.32h8.48c.32,0,.32,0,.48.32l12.8,43c0,.32,0,.48-.32.48H43.52c-.32,0-.48,0-.64-.32l-3.36-12-12.8.16Zm11.2-6.56c-1.12-4.48-3.84-14.08-4.8-18.72h0c-.8,4.64-3,12.64-4.64,18.72Zm16.32-7c0-.32,0-1.76-.16-4.16,0-.32.16-.32.32-.48A35,35,0,0,1,66.72,32.8c5.6,0,11.84,2.24,11.84,11.84v20.8a.42.42,0,0,1-.48.48H72a.42.42,0,0,1-.48-.48V45.28c0-3.84-1.28-5.92-5.28-5.92a11.82,11.82,0,0,0-4.48.8v25.6c0,.32-.16.48-.32.48H54.88a.42.42,0,0,1-.48-.48l-.16-25.6Z"/></g></g></svg>