<?xml version="1.0" encoding="utf-8"?>
<!-- Generator: Adobe Illustrator 25.0.0, SVG Export Plug-In . SVG Version: 6.00 Build 0)  -->
<svg version="1.1" id="Layer_1" xmlns="http://www.w3.org/2000/svg" xmlns:xlink="http://www.w3.org/1999/xlink" x="0px" y="0px"
	 viewBox="0 0 100 100" style="enable-background:new 0 0 100 100;" xml:space="preserve">
<g>
	<path d="M0.01,50.6c0.47,13.72,4.15,26.12,9.84,32.89c1.82,2.2,4.73,4.78,8.3,4.78c2.24,0,4.53-1.06,6.69-3.05
		c-5.68-8.07-9.19-20.64-9.64-34.63H0.01z"/>
	<path d="M37.83,64c-0.78-4.24-1.28-8.74-1.42-13.4h-0.08H21.22c0.4,11.79,3.18,22.6,7.56,29.71c0.59,0.95,1.2,1.84,1.84,2.64
		c0.16,0.18,0.3,0.36,0.45,0.54c0.47,0.57,1.01,1.15,1.61,1.71c1.75,1.65,4.02,3.07,6.68,3.07c2.24,0,4.53-1.06,6.68-3.05
		c-2.78-3.94-5.04-8.96-6.68-14.7C38.77,68.44,38.27,66.27,37.83,64z"/>
	<path d="M59.04,64.03c-0.8-4.24-1.29-8.75-1.43-13.42h-0.07H42.42c0.4,11.79,3.18,22.61,7.58,29.72c0.58,0.95,1.2,1.84,1.84,2.64
		c0.15,0.18,0.29,0.36,0.44,0.53c0.47,0.57,1.01,1.15,1.61,1.73c1.75,1.64,4.02,3.06,6.68,3.06c2.24,0,4.53-1.06,6.68-3.05
		c-2.78-3.94-5.04-8.96-6.68-14.7C59.97,68.45,59.47,66.28,59.04,64.03z"/>
	<path d="M81.77,6.9h-0.01c-0.13,0-0.27,0.01-0.4,0.02c-0.19,0-0.39,0.02-0.58,0.06c-0.04,0-0.1,0-0.15,0.01
		C80.54,7,80.43,7.02,80.35,7.03C80.17,7.07,80,7.11,79.83,7.16c-0.2,0.06-0.4,0.11-0.61,0.18c-1.58,0.55-2.98,1.54-4.13,2.62
		c-0.17,0.15-0.32,0.3-0.48,0.47c-0.43,0.4-0.81,0.83-1.14,1.24c-0.15,0.17-0.29,0.35-0.43,0.53c-0.65,0.81-1.26,1.69-1.85,2.64
		c-0.82,1.33-1.59,2.8-2.29,4.38c0,0-0.01,0-0.01,0.01c-0.18,0.39-0.35,0.8-0.52,1.21c-0.09,0.2-0.17,0.41-0.25,0.62
		c-0.09,0.2-0.17,0.41-0.25,0.63c-0.17,0.43-0.32,0.86-0.47,1.3c-0.16,0.43-0.3,0.86-0.44,1.3c-0.16,0.46-0.3,0.92-0.44,1.4
		c-0.02,0.08-0.04,0.15-0.07,0.21c-0.02,0.08-0.04,0.17-0.07,0.25c-0.09,0.29-0.17,0.57-0.24,0.86c-0.03,0.08-0.06,0.16-0.07,0.24
		c-0.08,0.25-0.13,0.5-0.2,0.76c-0.03,0.11-0.06,0.22-0.08,0.34c-0.17,0.66-0.33,1.33-0.47,2.01c-0.02,0.08-0.03,0.17-0.06,0.25
		c-0.01,0.06-0.02,0.11-0.03,0.17c0,0.01,0,0.02-0.01,0.03c-0.03,0.17-0.07,0.32-0.1,0.49c-0.08,0.43-0.17,0.86-0.25,1.3
		c-0.07,0.37-0.13,0.74-0.2,1.12c-0.13,0.77-0.25,1.56-0.36,2.35c-0.07,0.47-0.13,0.95-0.18,1.45C64.07,38.25,64,39,63.93,39.76
		c-0.03,0.24-0.06,0.47-0.07,0.72c-0.06,0.72-0.1,1.45-0.15,2.17c-0.03,0.52-0.06,1.04-0.08,1.56c-0.02,0.63-0.04,1.27-0.06,1.89
		c-0.02,0.49-0.02,1-0.02,1.5c0,0,0.03,1.66,0.03,1.11c0.15,12.51,2.98,24.13,7.61,31.61c0.58,0.95,1.19,1.84,1.84,2.64
		c0.13,0.18,0.28,0.36,0.43,0.53c0.47,0.57,1.02,1.15,1.62,1.73c1.75,1.64,4.02,3.06,6.68,3.06c8.81,0,18.23-16.35,18.23-40.69
		C100,23.25,90.58,6.9,81.77,6.9z"/>
	<path d="M69.65,6.91c-0.19,0.2-0.38,0.41-0.56,0.64v0.01c-0.08,0.09-0.16,0.17-0.22,0.26l-0.01,0.01c-0.21,0.26-0.43,0.53-0.64,0.8
		c-0.34,0.41-0.66,0.85-0.97,1.31v0.01c-0.74,1.03-1.43,2.14-2.07,3.32c-0.18,0.31-0.36,0.64-0.53,0.96
		c-0.18,0.34-0.36,0.68-0.53,1.04c-0.18,0.36-0.35,0.72-0.52,1.08c-0.17,0.36-0.34,0.73-0.49,1.11c-0.16,0.38-0.32,0.76-0.47,1.14
		c-0.16,0.38-0.31,0.77-0.46,1.17c-0.15,0.37-0.28,0.75-0.41,1.13c-0.16,0.41-0.3,0.84-0.44,1.28c-0.22,0.67-0.44,1.36-0.64,2.05
		c-0.04,0.15-0.09,0.28-0.12,0.43v0.01c-0.11,0.36-0.21,0.73-0.3,1.09c-0.15,0.53-0.28,1.05-0.4,1.58c-0.1,0.43-0.2,0.86-0.3,1.3
		c-0.04,0.15-0.08,0.3-0.1,0.46c-0.12,0.53-0.24,1.06-0.33,1.6c-0.03,0.16-0.07,0.3-0.09,0.46v0.01c-0.12,0.66-0.25,1.33-0.36,2.01
		c-0.04,0.34-0.1,0.67-0.15,1.01c-0.09,0.47-0.16,0.95-0.2,1.43c-0.07,0.48-0.12,0.96-0.18,1.45c-0.12,0.99-0.27,2.62-0.35,3.62
		c-0.02,0.27-0.04,0.54-0.05,0.82C57.73,42,57.7,42.5,57.68,43c-0.02,0.53-0.04,1.05-0.06,1.59H0c0.01-0.47,0.06-0.92,0.08-1.38
		l0.07-1.24c0.03-0.47,0.04-0.95,0.08-1.41c0.02-0.35,0.06-0.68,0.09-1.03c0.06-0.69,0.13-1.38,0.21-2.06
		c0.08-0.73,0.18-1.46,0.28-2.16c0.08-0.53,0.16-1.06,0.25-1.58c0.01-0.07,0.02-0.13,0.03-0.2c0.06-0.31,0.11-0.63,0.17-0.94
		c0.28-1.57,0.62-3.08,0.99-4.53c0.16-0.65,0.32-1.28,0.5-1.89c0.11-0.39,0.22-0.76,0.34-1.13c0.17-0.54,0.34-1.06,0.52-1.58
		c0.1-0.3,0.2-0.58,0.3-0.86c0.1-0.29,0.2-0.57,0.31-0.84c0.21-0.56,0.43-1.1,0.65-1.62c0.11-0.27,0.22-0.53,0.35-0.78
		c0.11-0.26,0.22-0.52,0.35-0.76c0.22-0.47,0.45-0.93,0.67-1.38c0.5-0.97,1.03-1.88,1.58-2.72c0.21-0.33,0.42-0.65,0.64-0.96
		c0.39-0.5,1.02-1.33,1.4-1.83c0,0,0-0.01,0.01-0.01c0.41-0.5,0.85-0.97,1.29-1.41c0.46-0.45,0.95-0.89,1.49-1.28
		c1.04-0.81,2.22-1.46,3.53-1.8c0.39-0.11,0.8-0.18,1.19-0.22c0.26-0.04,0.53-0.06,0.8-0.06c0.13,0,0.28,0,0.41,0.01h20.57
		c0.08-0.01,0.15-0.01,0.22-0.01c0.13,0,0.28,0,0.41,0.01h20.56c0.08-0.01,0.15-0.01,0.22-0.01c0.13,0,0.28,0,0.41,0.01H69.65z"/>
</g>
</svg>
